wght1000_wdth125.ufo
<glyph name="A" format="2">
	<unicode hex="0041"/>
	<advance width="1698"/>
	<outline>
		<contour>
			<point x="-75.6702880859" y="0" type="line"/>
			<point x="-73.6702880859" y="97.9951171875" type="line"/>
			<point x="138.3321533203" y="131.9951171875" type="line"/>
			<point x="406.3380126953" y="688.4517822266" type="line"/>
			<point x="770.3497924805" y="1507.5610351562" type="line"/>
			<point x="915.3056030273" y="1507.5610351562" type="line"/>
			<point x="1280.8990478516" y="639.1029052734" type="line"/>
			<point x="1535.8922119141" y="131.9951171875" type="line"/>
			<point x="1725.8946533203" y="97.9951171875" type="line"/>
			<point x="1723.8946533203" y="0" type="line"/>
			<point x="1106.5670166016" y="0" type="line"/>
			<point x="1108.5670166016" y="97.9951171875" type="line"/>
			<point x="1310.5694580078" y="135.9951171875" type="line"/>
			<point x="1121.9866943359" y="617" type="line"/>
			<point x="903.4974365234" y="1147.7808837891" type="line"/>
			<point x="836.9071044922" y="1307.5603027344" type="line"/>
			<point x="826.9071044922" y="1307.5603027344" type="line"/>
			<point x="760.6168212891" y="1147.7808837891" type="line"/>
			<point x="521.3436279297" y="594.1429443359" type="line"/>
			<point x="330.2291870117" y="136.9951171875" type="line"/>
			<point x="540.231628418" y="97.9951171875" type="line"/>
			<point x="538.231628418" y="0" type="line"/>
		</contour>
		<contour>
			<point x="834.1437988281" y="625.3166503906" type="line"/>
			<point x="930.8111572266" y="603.6583251953" type="line"/>
			<point x="999.6746826172" y="465.1130371094" type="line"/>
			<point x="830.1437988281" y="468.2260742188" type="line"/>
		</contour>
		<contour>
			<point x="373.2867431641" y="465.1130371094" type="line"/>
			<point x="421.4297485352" y="602.6583251953" type="line"/>
			<point x="834.1437988281" y="625.3166503906" type="line"/>
			<point x="830.1437988281" y="468.2260742188" type="line"/>
		</contour>
	</outline>
	<anchor name="bottom" x="735" y="0"/>
	<anchor name="ogonek" x="1318" y="0"/>
	<anchor name="tonos" x="492" y="1500"/>
	<anchor name="top" x="753" y="1500"/>
</glyph>
<glyph name="C" format="2">
	<unicode hex="0043"/>
	<advance width="1592"/>
	<outline>
		<contour>
			<point x="85" y="720" type="qcurve" smooth="yes"/>
			<point x="85" y="1095.2868652344"/>
			<point x="467.0147094727" y="1512.5366210938"/>
			<point x="775.1114501953" y="1512.5366210938" type="qcurve" smooth="yes"/>
			<point x="1005.802734375" y="1512.5366210938"/>
			<point x="1287.8107299805" y="1441.2780761719"/>
			<point x="1364.8218994141" y="1387" type="qcurve"/>
			<point x="1425.8218994141" y="1500" type="line"/>
			<point x="1547.2861328125" y="1500" type="line"/>
			<point x="1547.2861328125" y="1004.8386230469" type="line"/>
			<point x="1423.7562866211" y="1004.8386230469" type="line"/>
			<point x="1397.8218994141" y="1094.2434082031" type="line" smooth="yes"/>
			<point x="1357.8170166016" y="1230.8286743164"/>
			<point x="1077.5305786133" y="1382.7113037109"/>
			<point x="787.266418457" y="1382.7113037109" type="qcurve" smooth="yes"/>
			<point x="557.7655639648" y="1382.7113037109"/>
			<point x="264.6420898438" y="1073.1303710938"/>
			<point x="265.6420898438" y="720" type="qcurve" smooth="yes"/>
			<point x="265.6420898438" y="412.8994140625"/>
			<point x="557.1013183594" y="144.1634521484"/>
			<point x="842.9116210938" y="144.1634521484" type="qcurve" smooth="yes"/>
			<point x="1107.5550537109" y="144.1634521484"/>
			<point x="1430.1331787109" y="310.2185668945"/>
			<point x="1509.3999633789" y="379.9039916992" type="qcurve"/>
			<point x="1599.9404296875" y="280" type="line"/>
			<point x="1534.0505371094" y="194.4829101562"/>
			<point x="1119.1293945312" y="-19.5366210938"/>
			<point x="777.7818603516" y="-19.5366210938" type="qcurve" smooth="yes"/>
			<point x="496.7567138672" y="-19.5366210938"/>
			<point x="85" y="380.2192993164"/>
		</contour>
	</outline>
	<anchor name="bottom" x="836" y="0"/>
	<anchor name="top" x="836" y="1500"/>
</glyph>
<glyph name="D" format="2">
	<unicode hex="0044"/>
	<advance width="1623"/>
	<outline>
		<contour>
			<point x="81.9946289062" y="0" type="line"/>
			<point x="81.9946289062" y="99.9951171875" type="line"/>
			<point x="289.9970703125" y="134.9951171875" type="line"/>
			<point x="291.9970703125" y="754" type="line"/>
			<point x="289.9970703125" y="1352.0048828125" type="line"/>
			<point x="81.9946289062" y="1386.0048828125" type="line"/>
			<point x="81.9946289062" y="1500" type="line"/>
			<point x="914.9309082031" y="1500" type="line" smooth="yes"/>
			<point x="1233.9978637695" y="1502"/>
			<point x="1538.7133178711" y="1102"/>
			<point x="1538.7133178711" y="777" type="qcurve" smooth="yes"/>
			<point x="1538.7133178711" y="426"/>
			<point x="1215.1262207031" y="-9"/>
			<point x="878.2667236328" y="-6" type="qcurve" smooth="yes"/>
		</contour>
		<contour>
			<point x="466.2494506836" y="113.6287841797" type="line"/>
			<point x="497.3471069336" y="107.6287841797"/>
			<point x="731.8984985352" y="99.6287841797"/>
			<point x="827.0859985352" y="99.6287841797" type="qcurve" smooth="yes"/>
			<point x="1091.4923706055" y="99.6287841797"/>
			<point x="1338.6156616211" y="454.9345703125"/>
			<point x="1338.6156616211" y="749" type="qcurve" smooth="yes"/>
			<point x="1337.6156616211" y="1038.3364257812"/>
			<point x="1099.9010620117" y="1368.7373046875"/>
			<point x="791.8755493164" y="1368.7373046875" type="qcurve" smooth="yes"/>
			<point x="711.1616821289" y="1368.7373046875"/>
			<point x="499.6102905273" y="1356.7373046875"/>
			<point x="467.2494506836" y="1351.7373046875" type="qcurve"/>
			<point x="463.2494506836" y="743" type="line"/>
		</contour>
	</outline>
	<anchor name="bottom" x="686" y="0"/>
	<anchor name="center" x="438" y="754"/>
	<anchor name="top" x="686" y="1500"/>
	<anchor name="liga" x="1590" y="0"/>
</glyph>
<glyph name="F" format="2">
	<unicode hex="0046"/>
	<advance width="1384"/>
	<outline>
		<contour>
			<point x="81.9946289062" y="0" type="line"/>
			<point x="81.9946289062" y="99.9951171875" type="line"/>
			<point x="289.9970703125" y="132.9951171875" type="line"/>
			<point x="291.9970703125" y="754" type="line"/>
			<point x="289.9970703125" y="1352.0048828125" type="line"/>
			<point x="81.9946289062" y="1385.0048828125" type="line"/>
			<point x="81.9946289062" y="1500" type="line"/>
			<point x="1341.3380737305" y="1500" type="line"/>
			<point x="1341.3380737305" y="1135.6248168945" type="line"/>
			<point x="1225.3408813477" y="1135.6248168945" type="line"/>
			<point x="1176.3408813477" y="1370.631652832" type="line"/>
			<point x="524.2494506836" y="1370.631652832" type="line"/>
			<point x="470.2494506836" y="1346.631652832" type="line"/>
			<point x="473.2494506836" y="760" type="line"/>
			<point x="475.2494506836" y="137.9951171875" type="line"/>
			<point x="647.2518920898" y="100.9951171875" type="line"/>
			<point x="647.2518920898" y="0" type="line"/>
		</contour>
		<contour>
			<point x="418.0745239258" y="707.5799560547" type="line"/>
			<point x="418.0745239258" y="821.9900512695" type="line"/>
			<point x="1117.873840332" y="829.9900512695" type="line"/>
			<point x="1154.873840332" y="1000.6615600586" type="line"/>
			<point x="1248.3380737305" y="1000.6615600586" type="line"/>
			<point x="1248.3380737305" y="530.5748291016" type="line"/>
			<point x="1154.873840332" y="530.5748291016" type="line"/>
			<point x="1117.873840332" y="699.5799560547" type="line"/>
		</contour>
	</outline>
	<anchor name="bottom" x="578" y="0"/>
	<anchor name="top" x="622" y="1500"/>
</glyph>
<glyph name="G" format="2">
	<unicode hex="0047"/>
	<advance width="1727"/>
	<outline>
		<contour>
			<point x="85" y="733" type="qcurve" smooth="yes"/>
			<point x="85" y="1093.2780761719"/>
			<point x="452.8187866211" y="1511.5366210938"/>
			<point x="906.2731323242" y="1511.5366210938" type="qcurve" smooth="yes"/>
			<point x="1050.573425293" y="1511.5366210938"/>
			<point x="1200.2064819336" y="1454.7658691406"/>
			<point x="1296.2738647461" y="1403" type="qcurve"/>
			<point x="1334.2738647461" y="1500" type="line"/>
			<point x="1453.0045776367" y="1500" type="line"/>
			<point x="1453.0045776367" y="1023.3876342773" type="line"/>
			<point x="1322.5144042969" y="1023.3876342773" type="line"/>
			<point x="1273.4466552734" y="1165.6586303711" type="line" smooth="yes"/>
			<point x="1240.4466552734" y="1258.6586303711"/>
			<point x="1117.6036376953" y="1380.6400146484"/>
			<point x="898.0429077148" y="1380.6400146484" type="qcurve" smooth="yes"/>
			<point x="583.2559204102" y="1380.6400146484"/>
			<point x="274.0059814453" y="1071.125"/>
			<point x="272.0059814453" y="723" type="qcurve" smooth="yes"/>
			<point x="270.0059814453" y="389.4819335938"/>
			<point x="579.6522216797" y="126.0356445312"/>
			<point x="841.3204345703" y="126.0356445312" type="qcurve" smooth="yes"/>
			<point x="1050.8218383789" y="126.0356445312"/>
			<point x="1305.8590087891" y="188.4010620117"/>
			<point x="1357.7751464844" y="209.0317993164" type="qcurve"/>
			<point x="1357.7751464844" y="546.0024414062" type="line"/>
			<point x="1138.7739257812" y="576.0024414062" type="line"/>
			<point x="1138.7739257812" y="690.9975585938" type="line"/>
			<point x="1677.6030273438" y="690.9975585938" type="line"/>
			<point x="1677.6030273438" y="576.0024414062" type="line"/>
			<point x="1541.6005859375" y="546.0024414062" type="line"/>
			<point x="1541.6005859375" y="234" type="line"/>
			<point x="1425.5972290039" y="107.2292480469"/>
			<point x="1038.4940185547" y="-16.5366210938"/>
			<point x="839.3608398438" y="-19.5366210938" type="qcurve" smooth="yes"/>
			<point x="500.1711425781" y="-24.5366210938"/>
			<point x="85" y="322.4829101562"/>
		</contour>
	</outline>
	<anchor name="bottom" x="872" y="0"/>
	<anchor name="top" x="836" y="1500"/>
</glyph>
<glyph name="J" format="2">
	<unicode hex="004A"/>
	<advance width="750"/>
	<outline>
		<contour>
			<point x="-33.2835693359" y="-203.9951171875" type="qcurve"/>
			<point x="-33.2835693359" y="-54.19921875" type="line"/>
			<point x="-7.2016601562" y="-55.3492431641"/>
			<point x="80.0440673828" y="-52.7993164062"/>
			<point x="116.3609008789" y="-49.2493896484" type="qcurve" smooth="yes"/>
			<point x="200.8739624023" y="-40.7615966797"/>
			<point x="277.4968261719" y="41.7506103516"/>
			<point x="277.4968261719" y="135.7506103516" type="qcurve" smooth="yes"/>
			<point x="280.4968261719" y="754" type="line"/>
			<point x="278.4968261719" y="1352.0048828125" type="line"/>
			<point x="55.4943847656" y="1386.0048828125" type="line"/>
			<point x="55.4943847656" y="1500" type="line"/>
			<point x="690.6427612305" y="1500" type="line"/>
			<point x="670" y="1384" type="line"/>
			<point x="480" y="1350" type="line"/>
			<point x="464.6403198242" y="754" type="line"/>
			<point x="470.6403198242" y="221.5036621094" type="line" smooth="yes"/>
			<point x="473.0403442383" y="3.2036132812"/>
			<point x="296.2001953125" y="-201.9951171875"/>
			<point x="152.3196411133" y="-208.9951171875" type="qcurve" smooth="yes"/>
			<point x="140.4102783203" y="-210.9951171875"/>
			<point x="-4.2016601562" y="-207.9951171875"/>
		</contour>
	</outline>
	<anchor name="bottom" x="376" y="-208"/>
	<anchor name="top" x="376" y="1500"/>
	<anchor name="_liga" x="0" y="0"/>
</glyph>
<glyph name="K" format="2">
	<unicode hex="004B"/>
	<advance width="1474"/>
	<outline>
		<contour>
			<point x="81.9946289062" y="0" type="line"/>
			<point x="81.9946289062" y="99.9951171875" type="line"/>
			<point x="289.9970703125" y="134.9951171875" type="line"/>
			<point x="291.9970703125" y="754" type="line"/>
			<point x="289.9970703125" y="1352.0048828125" type="line"/>
			<point x="81.9946289062" y="1386.0048828125" type="line"/>
			<point x="81.9946289062" y="1500" type="line"/>
			<point x="683.2518920898" y="1500" type="line"/>
			<point x="683.2518920898" y="1386.0048828125" type="line"/>
			<point x="470.2494506836" y="1352.0048828125" type="line"/>
			<point x="468.2494506836" y="754.826171875" type="line"/>
			<point x="470.2494506836" y="134.9951171875" type="line"/>
			<point x="653.2518920898" y="99.9951171875" type="line"/>
			<point x="653.2518920898" y="0" type="line"/>
		</contour>
		<contour>
			<point x="376.255065918" y="451.5809936523" type="line"/>
			<point x="376.255065918" y="604.3657836914" type="line"/>
			<point x="1108.4970703125" y="1368.0048828125" type="line"/>
			<point x="937.4936523438" y="1387.0048828125" type="line"/>
			<point x="937.4936523438" y="1500" type="line"/>
			<point x="1562.389465332" y="1500" type="line"/>
			<point x="1562.389465332" y="1387.0048828125" type="line"/>
			<point x="1306.3862915039" y="1368.0048828125" type="line"/>
			<point x="826.6326293945" y="867.1912231445" type="line"/>
			<point x="783.8220825195" y="841.1912231445" type="line"/>
		</contour>
		<contour>
			<point x="665.8642578125" y="776.8061523438" type="line"/>
			<point x="803.6072387695" y="921.806640625" type="line"/>
			<point x="1396.4753417969" y="134.9951171875" type="line"/>
			<point x="1550.478515625" y="99.9951171875" type="line"/>
			<point x="1550.478515625" y="0" type="line"/>
			<point x="961.1030273438" y="0" type="line"/>
			<point x="961.1030273438" y="99.9951171875" type="line"/>
			<point x="1116.10546875" y="134.9951171875" type="line"/>
		</contour>
	</outline>
	<anchor name="bottom" x="812" y="0"/>
	<anchor name="top" x="770" y="1500"/>
</glyph>
<glyph name="L" format="2">
	<unicode hex="004C"/>
	<advance width="1374"/>
	<outline>
		<contour>
			<point x="123.9946289062" y="0" type="line"/>
			<point x="123.9946289062" y="99.9951171875" type="line"/>
			<point x="289.9970703125" y="136.9951171875" type="line"/>
			<point x="291.9970703125" y="754" type="line"/>
			<point x="289.9970703125" y="1352.0048828125" type="line"/>
			<point x="81.9946289062" y="1385.0048828125" type="line"/>
			<point x="81.9946289062" y="1500" type="line"/>
			<point x="661.2518920898" y="1500" type="line"/>
			<point x="661.2518920898" y="1386.0048828125" type="line"/>
			<point x="471.2494506836" y="1352.0048828125" type="line"/>
			<point x="470.2494506836" y="754" type="line"/>
			<point x="472.2494506836" y="142.5157470703" type="line"/>
			<point x="494.2494506836" y="118.5157470703" type="line"/>
			<point x="1174.417175293" y="118.5157470703" type="line"/>
			<point x="1254.417175293" y="438.8579101562" type="line"/>
			<point x="1382.8945922852" y="438.8579101562" type="line"/>
			<point x="1337.8945922852" y="0" type="line"/>
		</contour>
	</outline>
	<anchor name="bottom" x="705" y="0"/>
	<anchor name="centerright" x="928" y="750"/>
	<anchor name="top" x="632" y="1500"/>
	<anchor name="topright" x="784" y="1001"/>
	<anchor name="center" x="378" y="750"/>
	<anchor name="liga" x="1264" y="0"/>
</glyph>
<glyph name="M" format="2">
	<unicode hex="004D"/>
	<advance width="2078"/>
	<outline>
		<contour>
			<point x="90.9946289062" y="0" type="line"/>
			<point x="90.9946289062" y="99.9951171875" type="line"/>
			<point x="287.9970703125" y="134.9951171875" type="line"/>
			<point x="289.9970703125" y="754" type="line"/>
			<point x="287.9970703125" y="1353.0048828125" type="line"/>
			<point x="90.9946289062" y="1387.0048828125" type="line"/>
			<point x="90.9946289062" y="1500" type="line"/>
			<point x="566.2005004883" y="1500" type="line"/>
			<point x="835.3735961914" y="782.4731445312" type="line"/>
			<point x="1004" y="370" type="line"/>
			<point x="1046" y="256" type="line"/>
			<point x="1056" y="256" type="line"/>
			<point x="1098" y="370" type="line"/>
			<point x="1286.092590332" y="834.0454101562" type="line"/>
			<point x="1526.0217285156" y="1500" type="line"/>
			<point x="1995.7734985352" y="1500" type="line"/>
			<point x="1995.7734985352" y="1387.0048828125" type="line"/>
			<point x="1798.7710571289" y="1353.0048828125" type="line"/>
			<point x="1796.7710571289" y="754" type="line"/>
			<point x="1798.7710571289" y="134.9951171875" type="line"/>
			<point x="1995.7734985352" y="99.9951171875" type="line"/>
			<point x="1995.7734985352" y="0" type="line"/>
			<point x="1415.9431762695" y="0" type="line"/>
			<point x="1415.9431762695" y="99.9951171875" type="line"/>
			<point x="1605.9456176758" y="134.9951171875" type="line"/>
			<point x="1608.9456176758" y="752" type="line"/>
			<point x="1646" y="1210" type="line"/>
			<point x="1650" y="1329" type="line"/>
			<point x="1640" y="1331" type="line"/>
			<point x="1601" y="1224" type="line"/>
			<point x="1392.8557739258" y="765.783203125" type="line"/>
			<point x="1097.6520996094" y="-5" type="line"/>
			<point x="927.6680908203" y="-5" type="line"/>
			<point x="672.7710571289" y="665.3798217773" type="line"/>
			<point x="458" y="1229" type="line"/>
			<point x="418" y="1336" type="line"/>
			<point x="408" y="1334" type="line"/>
			<point x="413" y="1215" type="line"/>
			<point x="426.0632324219" y="754" type="line"/>
			<point x="428.0632324219" y="134.9951171875" type="line"/>
			<point x="605.0656738281" y="99.9951171875" type="line"/>
			<point x="605.0656738281" y="0" type="line"/>
		</contour>
	</outline>
	<anchor name="bottom" x="1025" y="0"/>
	<anchor name="top" x="1058" y="1500"/>
</glyph>
<glyph name="N" format="2">
	<unicode hex="004E"/>
	<advance width="1724"/>
	<outline>
		<contour>
			<point x="81.9946289062" y="0" type="line"/>
			<point x="81.9946289062" y="99.9951171875" type="line"/>
			<point x="285.9970703125" y="144.9951171875" type="line"/>
			<point x="288.9970703125" y="709" type="line"/>
			<point x="288.9970703125" y="1353.0048828125" type="line"/>
			<point x="81.9946289062" y="1387.0048828125" type="line"/>
			<point x="81.9946289062" y="1500" type="line"/>
			<point x="486.2456665039" y="1500" type="line"/>
			<point x="999.3032836914" y="756.2948608398" type="line"/>
			<point x="1220.7691040039" y="445.8821411133" type="line"/>
			<point x="1293.6409301758" y="336.7211303711" type="line"/>
			<point x="1304.3773193359" y="336.7211303711" type="line"/>
			<point x="1298.6567993164" y="487.7211303711" type="line"/>
			<point x="1298.7624511719" y="768.8166503906" type="line"/>
			<point x="1292.7624511719" y="1343.0048828125" type="line"/>
			<point x="1054.7600097656" y="1387.0048828125" type="line"/>
			<point x="1054.7600097656" y="1500" type="line"/>
			<point x="1645.5632324219" y="1500" type="line"/>
			<point x="1645.5632324219" y="1387.0048828125" type="line"/>
			<point x="1437.5607910156" y="1343.0048828125" type="line"/>
			<point x="1432.5607910156" y="758.8166503906" type="line"/>
			<point x="1428.5607910156" y="0" type="line"/>
			<point x="1261.8372192383" y="0" type="line"/>
			<point x="875.1427001953" y="602.8185424805" type="line"/>
			<point x="504.1791992188" y="1147.8295898438" type="line"/>
			<point x="421.7930297852" y="1265.8572998047" type="line"/>
			<point x="411.7930297852" y="1265.8572998047" type="line"/>
			<point x="422.8519287109" y="1116.8572998047" type="line"/>
			<point x="423.8519287109" y="773.6389160156" type="line"/>
			<point x="428.8519287109" y="144.9951171875" type="line"/>
			<point x="617.8543701172" y="99.9951171875" type="line"/>
			<point x="617.8543701172" y="0" type="line"/>
		</contour>
	</outline>
	<anchor name="bottom" x="800" y="0"/>
	<anchor name="top" x="800" y="1500"/>
	<anchor name="engtail" x="1324" y="0"/>
	<anchor name="liga" x="1600" y="0"/>
</glyph>
<glyph name="P" format="2">
	<unicode hex="0050"/>
	<advance width="1337"/>
	<outline>
		<contour>
			<point x="81.9946289062" y="0" type="line"/>
			<point x="81.9946289062" y="99.9951171875" type="line"/>
			<point x="289.9970703125" y="134.9951171875" type="line"/>
			<point x="291.9970703125" y="754" type="line"/>
			<point x="289.9970703125" y="1352.0048828125" type="line"/>
			<point x="81.9946289062" y="1386.0048828125" type="line"/>
			<point x="81.9946289062" y="1500" type="line"/>
			<point x="846.6227416992" y="1500" type="line" smooth="yes"/>
			<point x="1005.3868408203" y="1500"/>
			<point x="1258.5012207031" y="1277"/>
			<point x="1258.5012207031" y="1064" type="qcurve" smooth="yes"/>
			<point x="1258.5012207031" y="785"/>
			<point x="940.6254882812" y="546.3538818359"/>
			<point x="723.3528442383" y="546.3538818359" type="qcurve" smooth="yes"/>
			<point x="675.5275878906" y="546.3538818359"/>
			<point x="460.3095092773" y="560.3538818359"/>
			<point x="382.5126342773" y="575.3538818359" type="qcurve"/>
			<point x="391.2494506836" y="713.7559204102" type="line"/>
			<point x="442.1591186523" y="703.7935180664"/>
			<point x="639.7052001953" y="692.7935180664"/>
			<point x="706.7052001953" y="692.7935180664" type="qcurve" smooth="yes"/>
			<point x="889.3012695312" y="692.7935180664"/>
			<point x="1106.7216186523" y="863.8100585938"/>
			<point x="1102.7216186523" y="1046" type="qcurve" smooth="yes"/>
			<point x="1099.7216186523" y="1187.9052734375"/>
			<point x="915.7469482422" y="1347.046875"/>
			<point x="780.5081787109" y="1347.046875" type="qcurve" smooth="yes"/>
			<point x="487.2494506836" y="1347.046875" type="line"/>
			<point x="466.2494506836" y="1330.046875" type="line"/>
			<point x="462.2494506836" y="764" type="line"/>
			<point x="464.2494506836" y="137.9951171875" type="line"/>
			<point x="664.2518920898" y="99.9951171875" type="line"/>
			<point x="664.2518920898" y="0" type="line"/>
		</contour>
	</outline>
	<anchor name="bottom" x="634" y="0"/>
	<anchor name="top" x="634" y="1500"/>
</glyph>
<glyph name="Q" format="2">
	<unicode hex="0051"/>
	<advance width="1676"/>
	<outline>
		<contour>
			<point x="81" y="734" type="qcurve" smooth="yes"/>
			<point x="81" y="1070.2683105469"/>
			<point x="493.4696044922" y="1522.0244140625"/>
			<point x="837.4829101562" y="1522.0244140625" type="qcurve" smooth="yes"/>
			<point x="1197.1112060547" y="1522.0244140625"/>
			<point x="1595.2666015625" y="1099.2683105469"/>
			<point x="1595.2666015625" y="756" type="qcurve" smooth="yes"/>
			<point x="1595.2666015625" y="451.7316894531"/>
			<point x="1201.7412109375" y="-15.2878417969"/>
			<point x="839.7430419922" y="-15.2878417969" type="qcurve" smooth="yes"/>
			<point x="516.7431030273" y="-15.2878417969"/>
			<point x="81" y="382.7316894531"/>
		</contour>
		<contour>
			<point x="270.6420898438" y="778" type="qcurve" smooth="yes"/>
			<point x="268.6420898438" y="471.6147460938"/>
			<point x="587.2761230469" y="119.0509643555"/>
			<point x="836.6341552734" y="119.0509643555" type="qcurve" smooth="yes"/>
			<point x="1111.7065429688" y="119.0509643555"/>
			<point x="1395.6245117188" y="421.6635742188"/>
			<point x="1393.6245117188" y="753" type="qcurve" smooth="yes"/>
			<point x="1391.6245117188" y="1054.3852539062"/>
			<point x="1086.7933349609" y="1379.8108520508"/>
			<point x="834.4829101562" y="1379.8108520508" type="qcurve" smooth="yes"/>
			<point x="562.38671875" y="1379.8108520508"/>
			<point x="272.6420898438" y="1087.306640625"/>
		</contour>
		<contour>
			<point x="573" y="-39" type="qcurve"/>
			<point x="1243.9594116211" y="-260.8502807617" type="line"/>
			<point x="1317.2405395508" y="-260.005065918"/>
			<point x="1397.4451293945" y="-205.318359375"/>
			<point x="1442.0708007812" y="-125.3257446289" type="qcurve"/>
			<point x="1521.0656738281" y="-168.591003418" type="line"/>
			<point x="1463.0280761719" y="-337.0270385742"/>
			<point x="1341.8314819336" y="-414.5192260742"/>
			<point x="1198.9984741211" y="-414.5192260742" type="qcurve"/>
			<point x="557.2626342773" y="-211.7929077148" type="line"/>
			<point x="462.4811401367" y="-211.7929077148"/>
			<point x="383.4541015625" y="-245.8660888672"/>
			<point x="314.3289794922" y="-300.5963745117" type="qcurve"/>
			<point x="258.390625" y="-260.2845458984" type="line"/>
			<point x="299" y="-132"/>
			<point x="476" y="-39"/>
		</contour>
		<contour>
			<point x="518" y="-96" type="line"/>
			<point x="785.6459960938" y="440.7321777344" type="line"/>
			<point x="905.0660400391" y="339.8034667969" type="line"/>
			<point x="634" y="-133" type="line"/>
		</contour>
	</outline>
	<anchor name="bottom" x="832" y="0"/>
	<anchor name="top" x="823" y="1502"/>
</glyph>
<glyph name="S" format="2">
	<unicode hex="0053"/>
	<advance width="1307"/>
	<outline>
		<contour>
			<point x="73.4982910156" y="0" type="line"/>
			<point x="73.4982910156" y="465.9856567383" type="line"/>
			<point x="189.8282470703" y="465.9856567383" type="line"/>
			<point x="210.4954833984" y="400.9826660156" type="line" smooth="yes"/>
			<point x="251.7491455078" y="286.9582519531"/>
			<point x="521.2073974609" y="134.7347412109"/>
			<point x="688.9783935547" y="134.7347412109" type="qcurve" smooth="yes"/>
			<point x="910.7886962891" y="134.7347412109"/>
			<point x="1056.2049560547" y="297.2225341797"/>
			<point x="1056.2425537109" y="389.1522216797" type="qcurve" smooth="yes"/>
			<point x="1056.2801513672" y="504.0140991211"/>
			<point x="933.1549682617" y="623.1507568359"/>
			<point x="588.0902709961" y="714.6840209961" type="qcurve" smooth="yes"/>
			<point x="358.2462768555" y="791.2816772461"/>
			<point x="133.1988525391" y="992.266418457"/>
			<point x="133.1988525391" y="1169.4383544922" type="qcurve" smooth="yes"/>
			<point x="133.1988525391" y="1326.8825073242"/>
			<point x="420.5892333984" y="1519.5366210938"/>
			<point x="631.4522705078" y="1519.5366210938" type="qcurve" smooth="yes"/>
			<point x="764.7351074219" y="1519.5366210938"/>
			<point x="922.6871948242" y="1450.0658569336"/>
			<point x="959.6676635742" y="1424" type="qcurve"/>
			<point x="997.1412963867" y="1500" type="line"/>
			<point x="1087.4392700195" y="1500" type="line"/>
			<point x="1087.4392700195" y="1073.7954711914" type="line"/>
			<point x="981.6427612305" y="1073.7954711914" type="line"/>
			<point x="958.4420776367" y="1140.0664672852" type="line" smooth="yes"/>
			<point x="918.9396362305" y="1229.5835571289"/>
			<point x="778.2791137695" y="1357.5417480469"/>
			<point x="625.0765991211" y="1357.5417480469" type="qcurve" smooth="yes"/>
			<point x="423.0996704102" y="1357.5417480469"/>
			<point x="313.6083984375" y="1226.9118652344"/>
			<point x="313.6459960938" y="1167.9226074219" type="qcurve" smooth="yes"/>
			<point x="313.68359375" y="1068.5385131836"/>
			<point x="427.7581787109" y="969.5798950195"/>
			<point x="729.0567016602" y="878.6475219727" type="qcurve" smooth="yes"/>
			<point x="1000.217590332" y="784.3586425781"/>
			<point x="1236.8071899414" y="581.306640625"/>
			<point x="1236.8071899414" y="408.0258178711" type="qcurve" smooth="yes"/>
			<point x="1236.8071899414" y="236.4727783203"/>
			<point x="942.8010864258" y="-18.048828125"/>
			<point x="700.4345703125" y="-18.048828125" type="qcurve" smooth="yes"/>
			<point x="548.6215820312" y="-18.048828125"/>
			<point x="279.479309082" y="38.0726928711"/>
			<point x="230.4954833984" y="86" type="qcurve"/>
			<point x="171.6288452148" y="0" type="line"/>
		</contour>
	</outline>
	<anchor name="bottom" x="599" y="0"/>
	<anchor name="top" x="514" y="1500"/>
</glyph>
<glyph name="T" format="2">
	<unicode hex="0054"/>
	<advance width="1442"/>
	<outline>
		<contour>
			<point x="42.1990966797" y="1041.5731201172" type="line"/>
			<point x="42.1990966797" y="1500" type="line"/>
			<point x="1403.9049072266" y="1500" type="line"/>
			<point x="1403.9049072266" y="1041.5731201172" type="line"/>
			<point x="1293.9077148438" y="1041.5731201172" type="line"/>
			<point x="1257.9055175781" y="1371.5825195312" type="line"/>
			<point x="826.254699707" y="1371.5825195312" type="line"/>
			<point x="808.254699707" y="1355.5825195312" type="line"/>
			<point x="808.254699707" y="763.6143188477" type="line"/>
			<point x="810.254699707" y="134.9951171875" type="line"/>
			<point x="1030.2571411133" y="99.9951171875" type="line"/>
			<point x="1030.2571411133" y="0" type="line"/>
			<point x="415.9998779297" y="0" type="line"/>
			<point x="415.9998779297" y="99.9951171875" type="line"/>
			<point x="634.0023193359" y="134.9951171875" type="line"/>
			<point x="637.0023193359" y="763.6143188477" type="line"/>
			<point x="637.0023193359" y="1355.5825195312" type="line"/>
			<point x="621.0023193359" y="1371.5825195312" type="line"/>
			<point x="187.1984863281" y="1371.5825195312" type="line"/>
			<point x="151.1962890625" y="1041.5731201172" type="line"/>
		</contour>
	</outline>
	<anchor name="bottom" x="644" y="0"/>
	<anchor name="center" x="644" y="750"/>
	<anchor name="top" x="644" y="1500"/>
	<anchor name="cy_descender" x="951" y="100"/>
</glyph>
<glyph name="U" format="2">
	<unicode hex="0055"/>
	<advance width="1784"/>
	<outline>
		<contour>
			<point x="71" y="1388" type="line"/>
			<point x="71" y="1500" type="line"/>
			<point x="643" y="1500" type="line"/>
			<point x="643" y="1386" type="line"/>
			<point x="455" y="1354" type="line"/>
			<point x="450" y="859" type="line"/>
			<point x="452" y="614" type="line" smooth="yes"/>
			<point x="454" y="367"/>
			<point x="608" y="128"/>
			<point x="901" y="127" type="qcurve" smooth="yes"/>
			<point x="1189" y="126"/>
			<point x="1366" y="355"/>
			<point x="1365" y="635" type="qcurve" smooth="yes"/>
			<point x="1364" y="859" type="line"/>
			<point x="1362" y="1352" type="line"/>
			<point x="1174" y="1386" type="line"/>
			<point x="1174" y="1500" type="line"/>
			<point x="1665" y="1500" type="line"/>
			<point x="1665" y="1386" type="line"/>
			<point x="1502" y="1352" type="line"/>
			<point x="1500" y="859" type="line"/>
			<point x="1505" y="629" type="line" smooth="yes"/>
			<point x="1512" y="288"/>
			<point x="1241" y="-26"/>
			<point x="894" y="-26" type="qcurve" smooth="yes"/>
			<point x="543" y="-26"/>
			<point x="272" y="279"/>
			<point x="273" y="621" type="qcurve" smooth="yes"/>
			<point x="274" y="859" type="line"/>
			<point x="275" y="1354" type="line"/>
		</contour>
	</outline>
	<anchor name="bottom" x="832" y="0"/>
	<anchor name="ogonek" x="1042" y="0"/>
	<anchor name="top" x="832" y="1500"/>
	<anchor name="topright" x="1590" y="1500"/>
</glyph>
<glyph name="V" format="2">
	<unicode hex="0056"/>
	<advance width="1502"/>
	<outline>
		<contour>
			<point x="-28.0043945312" y="1385.0048828125" type="line"/>
			<point x="-28.0043945312" y="1500" type="line"/>
			<point x="516.6186523438" y="1500" type="line"/>
			<point x="516.6186523438" y="1385.0048828125" type="line"/>
			<point x="341.6149902344" y="1358.0048828125" type="line"/>
			<point x="578.2771606445" y="747.5544433594" type="line"/>
			<point x="709" y="366" type="line"/>
			<point x="746" y="252" type="line"/>
			<point x="756" y="252" type="line"/>
			<point x="793" y="366" type="line"/>
			<point x="969.706237793" y="837.8548583984" type="line"/>
			<point x="1161.9020996094" y="1351.0048828125" type="line"/>
			<point x="994.8984375" y="1385.0048828125" type="line"/>
			<point x="992.8984375" y="1500" type="line"/>
			<point x="1522.9717407227" y="1500" type="line"/>
			<point x="1522.9717407227" y="1385.0048828125" type="line"/>
			<point x="1345.9683227539" y="1356.0048828125" type="line"/>
			<point x="1122.5858764648" y="783.964050293" type="line"/>
			<point x="832.0897827148" y="14.9267578125" type="line"/>
			<point x="681.5642700195" y="14.9267578125" type="line"/>
			<point x="396.0626831055" y="732.258605957" type="line"/>
			<point x="137.9990234375" y="1356.0048828125" type="line"/>
		</contour>
	</outline>
	<anchor name="bottom" x="723" y="0"/>
	<anchor name="top" x="733" y="1500"/>
</glyph>
<glyph name="W" format="2">
	<unicode hex="0057"/>
	<advance width="2000"/>
	<outline>
		<contour>
			<point x="591.102722168" y="14.9267578125" type="line"/>
			<point x="370.0542602539" y="714.1359863281" type="line"/>
			<point x="157.9990234375" y="1358.0048828125" type="line"/>
			<point x="-34.0034179688" y="1387.0048828125" type="line"/>
			<point x="-34.0034179688" y="1500" type="line"/>
			<point x="526.7352294922" y="1500" type="line"/>
			<point x="526.7352294922" y="1387.0048828125" type="line"/>
			<point x="342.7327880859" y="1360.0048828125" type="line"/>
			<point x="526.8086547852" y="776.766418457" type="line"/>
			<point x="675" y="370" type="line"/>
			<point x="710" y="256" type="line"/>
			<point x="720" y="256" type="line"/>
			<point x="759" y="370" type="line"/>
			<point x="868" y="674" type="line"/>
			<point x="996" y="1038" type="line"/>
			<point x="883.0033569336" y="1353.0048828125" type="line"/>
			<point x="713.0009155273" y="1382.0048828125" type="line"/>
			<point x="713.0009155273" y="1500" type="line"/>
			<point x="1246.2126464844" y="1500" type="line"/>
			<point x="1246.2126464844" y="1382.0048828125" type="line"/>
			<point x="1064.2102050781" y="1356.0048828125" type="line"/>
			<point x="1207.5841064453" y="848.5184936523" type="line"/>
			<point x="1397" y="370" type="line"/>
			<point x="1430" y="256" type="line"/>
			<point x="1440" y="256" type="line"/>
			<point x="1476" y="370" type="line"/>
			<point x="1629" y="803" type="line"/>
			<point x="1725.2280883789" y="1353.0048828125" type="line"/>
			<point x="1529.2256469727" y="1387.0048828125" type="line"/>
			<point x="1529.2256469727" y="1500" type="line"/>
			<point x="2107.8413085938" y="1500" type="line"/>
			<point x="2107.8413085938" y="1387.0048828125" type="line"/>
			<point x="1902.8388671875" y="1358.0048828125" type="line"/>
			<point x="1747" y="760" type="line"/>
			<point x="1424.5629272461" y="14.9267578125" type="line"/>
			<point x="1280.3585205078" y="14.9267578125" type="line"/>
			<point x="1096" y="750" type="line"/>
			<point x="1060" y="866" type="line"/>
			<point x="1050" y="866" type="line"/>
			<point x="1014" y="750" type="line"/>
			<point x="710.3790283203" y="14.9267578125" type="line"/>
		</contour>
	</outline>
	<anchor name="bottom" x="1051" y="0"/>
	<anchor name="top" x="1051" y="1500"/>
</glyph>
<glyph name="X" format="2">
	<unicode hex="0058"/>
	<advance width="1454"/>
	<outline>
		<contour>
			<point x="-72.4494628906" y="0" type="line"/>
			<point x="-72.4494628906" y="99.9951171875" type="line"/>
			<point x="126.5544433594" y="133.9951171875" type="line"/>
			<point x="575" y="786" type="line"/>
			<point x="184.5654907227" y="1353.0048828125" type="line"/>
			<point x="-11.4381713867" y="1387.0048828125" type="line"/>
			<point x="-11.4381713867" y="1500" type="line"/>
			<point x="618.6482543945" y="1500" type="line"/>
			<point x="618.6482543945" y="1387.0048828125" type="line"/>
			<point x="427.6431274414" y="1353.0048828125" type="line"/>
			<point x="601" y="1043" type="line"/>
			<point x="673" y="929" type="line"/>
			<point x="683" y="929" type="line"/>
			<point x="751" y="1043" type="line"/>
			<point x="977.0755615234" y="1353.0048828125" type="line"/>
			<point x="814.0706787109" y="1387.0048828125" type="line"/>
			<point x="814.0706787109" y="1500" type="line"/>
			<point x="1399.9686889648" y="1500" type="line"/>
			<point x="1399.9686889648" y="1387.0048828125" type="line"/>
			<point x="1202.9647827148" y="1353.0048828125" type="line"/>
			<point x="753" y="818" type="line"/>
			<point x="1315.6688232422" y="133.9951171875" type="line"/>
			<point x="1515.6724853516" y="99.9951171875" type="line"/>
			<point x="1515.6724853516" y="0" type="line"/>
			<point x="858.5316162109" y="0" type="line"/>
			<point x="858.5316162109" y="99.9951171875" type="line"/>
			<point x="1084.5367431641" y="133.9951171875" type="line"/>
			<point x="727" y="562" type="line"/>
			<point x="655" y="676" type="line"/>
			<point x="645" y="676" type="line"/>
			<point x="577" y="562" type="line"/>
			<point x="357.4436645508" y="138.9951171875" type="line"/>
			<point x="539.4485473633" y="99.9951171875" type="line"/>
			<point x="539.4485473633" y="0" type="line"/>
		</contour>
	</outline>
	<anchor name="bottom" x="661" y="0"/>
	<anchor name="top" x="673" y="1500"/>
	<anchor name="cy_descender" x="1386" y="100"/>
	<anchor name="center" x="663" y="811"/>
</glyph>
<glyph name="Y" format="2">
	<unicode hex="0059"/>
	<advance width="1322"/>
	<outline>
		<contour>
			<point x="380.8973999023" y="0" type="line"/>
			<point x="380.8973999023" y="99.9951171875" type="line"/>
			<point x="558.8998413086" y="133.9951171875" type="line"/>
			<point x="560.8998413086" y="650.8614501953" type="line"/>
			<point x="410.3447265625" y="912.623046875" type="line"/>
			<point x="112.9990234375" y="1353.0048828125" type="line"/>
			<point x="-54.0034179688" y="1387.0048828125" type="line"/>
			<point x="-54.0034179688" y="1500" type="line"/>
			<point x="481.7909545898" y="1500" type="line"/>
			<point x="481.7909545898" y="1387.0048828125" type="line"/>
			<point x="308.7885131836" y="1359.0048828125" type="line"/>
			<point x="582.1348266602" y="912.7418823242" type="line"/>
			<point x="659" y="783" type="line"/>
			<point x="669" y="783" type="line"/>
			<point x="860.828125" y="1065.7463378906" type="line"/>
			<point x="1040.9031982422" y="1353.0048828125" type="line"/>
			<point x="896.9007568359" y="1387.0048828125" type="line"/>
			<point x="896.9007568359" y="1500" type="line"/>
			<point x="1361.4016723633" y="1500" type="line"/>
			<point x="1361.4016723633" y="1387.0048828125" type="line"/>
			<point x="1199.399230957" y="1353.0048828125" type="line"/>
			<point x="965.8029785156" y="995.7292480469" type="line"/>
			<point x="732.8918457031" y="630.9162597656" type="line"/>
			<point x="732.9974975586" y="133.9951171875" type="line"/>
			<point x="907.9999389648" y="99.9951171875" type="line"/>
			<point x="907.9999389648" y="0" type="line"/>
		</contour>
	</outline>
	<anchor name="bottom" x="636" y="0"/>
	<anchor name="top" x="640" y="1500"/>
	<anchor name="tonos" x="-100" y="1500"/>
	<anchor name="center" x="636" y="582"/>
</glyph>
<glyph name="Z" format="2">
	<unicode hex="005A"/>
	<advance width="1321"/>
	<outline>
		<contour>
			<point x="119.4992675781" y="0" type="line"/>
			<point x="94.6762084961" y="89.5256958008" type="line"/>
			<point x="982.1508178711" y="1356.3712158203" type="line"/>
			<point x="974.1508178711" y="1371.3712158203" type="line"/>
			<point x="343.1640625" y="1371.3712158203" type="line"/>
			<point x="263.3630371094" y="1070.1619873047" type="line"/>
			<point x="176.1668701172" y="1070.1619873047" type="line"/>
			<point x="176.1668701172" y="1500" type="line"/>
			<point x="1209.3151245117" y="1500" type="line"/>
			<point x="1209.3151245117" y="1404.9903564453" type="line"/>
			<point x="326.494934082" y="154.7344360352" type="line"/>
			<point x="335.494934082" y="135.7344360352" type="line"/>
			<point x="1024.2249755859" y="135.7344360352" type="line"/>
			<point x="1125.3604736328" y="455.7421264648" type="line"/>
			<point x="1245.0896606445" y="455.7421264648" type="line"/>
			<point x="1195.2221679688" y="0" type="line"/>
		</contour>
	</outline>
	<anchor name="bottom" x="583" y="0"/>
	<anchor name="top" x="583" y="1500"/>
	<anchor name="_liga" x="0" y="0"/>
</glyph>
<glyph name="a" format="2">
	<unicode hex="0061"/>
	<advance width="1129"/>
	<outline>
		<contour>
			<point x="79.4321289062" y="259.1951904297" type="qcurve" smooth="yes"/>
			<point x="79.4321289062" y="421.9417724609"/>
			<point x="416" y="583"/>
			<point x="780" y="630" type="qcurve"/>
			<point x="896.0594482422" y="538.4245605469" type="line"/>
			<point x="511.76953125" y="509.5957641602"/>
			<point x="268.6025390625" y="373.4203491211"/>
			<point x="268.6025390625" y="278.5679931641" type="qcurve" smooth="yes"/>
			<point x="268.6025390625" y="184.8928833008"/>
			<point x="346.3517456055" y="113.2205810547"/>
			<point x="449.9780883789" y="113.2205810547" type="qcurve" smooth="yes"/>
			<point x="507.6151733398" y="113.2205810547"/>
			<point x="686.2549438477" y="209.3731689453"/>
			<point x="711.4102783203" y="253.9116821289" type="qcurve"/>
			<point x="714.4102783203" y="554.6820678711" type="line" smooth="yes"/>
			<point x="715.4102783203" y="753.401550293"/>
			<point x="609.1762695312" y="883.4760742188"/>
			<point x="471.3985595703" y="883.4760742188" type="qcurve" smooth="yes"/>
			<point x="397.8334350586" y="883.4760742188"/>
			<point x="308.1052856445" y="840.176574707"/>
			<point x="321.7330322266" y="842.7496948242" type="qcurve"/>
			<point x="348.2914428711" y="815.7512207031"/>
			<point x="368.8238525391" y="781.4135742188"/>
			<point x="371.897277832" y="754.5864257812" type="qcurve" smooth="yes"/>
			<point x="377.7033691406" y="713.6965332031"/>
			<point x="304.0828857422" y="644.9846191406"/>
			<point x="252.8370361328" y="644.9846191406" type="qcurve" smooth="yes"/>
			<point x="214.8782958984" y="644.9846191406"/>
			<point x="155.9087524414" y="705.9897460938"/>
			<point x="155.9087524414" y="767.7016601562" type="qcurve" smooth="yes"/>
			<point x="155.9087524414" y="871.5219726562"/>
			<point x="327.0483398438" y="1024.1384277344"/>
			<point x="510.6901245117" y="1024.1384277344" type="qcurve" smooth="yes"/>
			<point x="677.2034912109" y="1024.1384277344"/>
			<point x="872.4808349609" y="866.1099243164"/>
			<point x="874.4808349609" y="707.3773193359" type="qcurve" smooth="yes"/>
			<point x="877.4808349609" y="115.005859375" type="line"/>
			<point x="1037.4808349609" y="80.005859375" type="line"/>
			<point x="1037.4808349609" y="0" type="line"/>
			<point x="799.0594482422" y="0" type="line"/>
			<point x="727.0594482422" y="61" type="line"/>
			<point x="717.0594482422" y="95.8673706055" type="line"/>
			<point x="677.8850097656" y="51.0026855469"/>
			<point x="456.0737915039" y="-12.5366210938"/>
			<point x="260.3704223633" y="-12.5366210938" type="qcurve" smooth="yes"/>
			<point x="216.9949951172" y="-12.5366210938"/>
			<point x="79.4321289062" y="121.082824707"/>
		</contour>
	</outline>
	<anchor name="bottom" x="548" y="0"/>
	<anchor name="ogonek" x="878" y="0"/>
	<anchor name="top" x="514" y="1000"/>
</glyph>
<glyph name="c" format="2">
	<unicode hex="0063"/>
	<advance width="1035"/>
	<outline>
		<contour>
			<point x="64.8914794922" y="473.7644042969" type="qcurve" smooth="yes"/>
			<point x="64.8914794922" y="717.0194091797"/>
			<point x="357.7254638672" y="1026.0153198242"/>
			<point x="607.5541381836" y="1026.0153198242" type="qcurve" smooth="yes"/>
			<point x="751.3805541992" y="1026.0153198242"/>
			<point x="811.446472168" y="965.7518920898"/>
			<point x="873.9752807617" y="924.493347168" type="qcurve"/>
			<point x="904.0503540039" y="1001.493347168" type="line"/>
			<point x="995.8237915039" y="1001.493347168" type="line"/>
			<point x="995.8237915039" y="601.5632324219" type="line"/>
			<point x="912.4719848633" y="601.5632324219" type="line"/>
			<point x="889.8055419922" y="716.5621948242" type="line" smooth="yes"/>
			<point x="873.1389160156" y="807.5615234375"/>
			<point x="687.7825927734" y="898.8187866211"/>
			<point x="563.0708007812" y="898.8187866211" type="qcurve" smooth="yes"/>
			<point x="415.3142089844" y="898.8187866211"/>
			<point x="243.3179931641" y="674.9998168945"/>
			<point x="243.3179931641" y="512.3167114258" type="qcurve" smooth="yes"/>
			<point x="243.3179931641" y="338.2322387695"/>
			<point x="394.1785888672" y="121.6010742188"/>
			<point x="573.9351806641" y="121.6010742188" type="qcurve" smooth="yes"/>
			<point x="684.6193847656" y="121.6010742188"/>
			<point x="885.5852661133" y="207.6473999023"/>
			<point x="948.5905151367" y="258.8120727539" type="qcurve"/>
			<point x="1013.1279296875" y="159" type="line"/>
			<point x="928.5294799805" y="86"/>
			<point x="705.9149780273" y="-30.0244140625"/>
			<point x="565.2915039062" y="-30.0244140625" type="qcurve" smooth="yes"/>
			<point x="365.0446166992" y="-30.0244140625"/>
			<point x="64.8914794922" y="250.8089599609"/>
		</contour>
	</outline>
	<anchor name="bottom" x="563" y="0"/>
	<anchor name="top" x="534" y="1000"/>
</glyph>
<glyph name="d" format="2">
	<unicode hex="0064"/>
	<advance width="1257"/>
	<outline>
		<contour>
			<point x="63.3157958984" y="488.2045288086" type="qcurve" smooth="yes"/>
			<point x="63.3157958984" y="736.6901245117"/>
			<point x="342.533996582" y="1012.9287109375"/>
			<point x="591.6832885742" y="1012.9287109375" type="qcurve" smooth="yes"/>
			<point x="660.4349365234" y="1012.9287109375"/>
			<point x="816.4624023438" y="976.3188476562"/>
			<point x="855.4672241211" y="946.6138916016" type="qcurve"/>
			<point x="856.7294921875" y="1379.994140625" type="line"/>
			<point x="718.7294921875" y="1409.994140625" type="line"/>
			<point x="718.7294921875" y="1500" type="line"/>
			<point x="956.3190917969" y="1529.0244140625" type="line"/>
			<point x="996.9763183594" y="1529.0244140625" type="line"/>
			<point x="1031.5153808594" y="1480.0244140625" type="line"/>
			<point x="1026.5153808594" y="480.1924438477" type="line"/>
			<point x="1031.1867675781" y="115.005859375" type="line"/>
			<point x="1202.1867675781" y="80.005859375" type="line"/>
			<point x="1202.1867675781" y="0" type="line"/>
			<point x="910.2061157227" y="0" type="line"/>
			<point x="870.1614990234" y="50" type="line"/>
			<point x="859.072265625" y="121.3558349609" type="line"/>
			<point x="813.4989624023" y="68.0675048828"/>
			<point x="622.6361083984" y="-13.2780761719"/>
			<point x="508.8006591797" y="-13.2780761719" type="qcurve" smooth="yes"/>
			<point x="313.4334106445" y="-13.2780761719"/>
			<point x="63.3157958984" y="259.1581420898"/>
		</contour>
		<contour>
			<point x="237.2135009766" y="503.615234375" type="qcurve" smooth="yes"/>
			<point x="237.2135009766" y="333.3037109375"/>
			<point x="404.0178833008" y="115.252746582"/>
			<point x="534.6231079102" y="115.252746582" type="qcurve" smooth="yes"/>
			<point x="652.5709228516" y="115.252746582"/>
			<point x="842.0277709961" y="212.3490600586"/>
			<point x="882.8127441406" y="274.3612060547" type="qcurve"/>
			<point x="883.8127441406" y="479.7948608398" type="line"/>
			<point x="882.8127441406" y="781.6508789062" type="line"/>
			<point x="849.6675415039" y="837.416015625"/>
			<point x="668.2232055664" y="913.0360107422"/>
			<point x="585.1764526367" y="913.0360107422" type="qcurve" smooth="yes"/>
			<point x="414.2684936523" y="913.0360107422"/>
			<point x="237.2135009766" y="673.0244140625"/>
		</contour>
	</outline>
	<anchor name="bottom" x="604" y="0"/>
	<anchor name="center" x="876" y="1202"/>
	<anchor name="top" x="604" y="1534"/>
	<anchor name="topright" x="961" y="1000"/>
	<anchor name="liga" x="1207" y="0"/>
</glyph>
<glyph name="e" format="2">
	<unicode hex="0065"/>
	<advance width="1053"/>
	<outline>
		<contour>
			<point x="64.8306884766" y="496.8364868164" type="qcurve" smooth="yes"/>
			<point x="64.8306884766" y="725.1951904297"/>
			<point x="351.0171508789" y="1028.4653320312"/>
			<point x="569.7677612305" y="1028.4653320312" type="qcurve" smooth="yes"/>
			<point x="751.3438720703" y="1028.4653320312"/>
			<point x="1021.1330566406" y="789.1063232422"/>
			<point x="1037.008605957" y="578.7000732422" type="qcurve"/>
			<point x="1037.7730102539" y="471.6633300781" type="line"/>
			<point x="187.7078857422" y="471.6633300781" type="line"/>
			<point x="186.9434814453" y="612.8930664062" type="line"/>
			<point x="853.5603637695" y="612.8930664062" type="line"/>
			<point x="845.2317504883" y="748.9172973633"/>
			<point x="666.0059814453" y="908.9719848633"/>
			<point x="559.8551025391" y="908.9719848633" type="qcurve" smooth="yes"/>
			<point x="447.2498779297" y="908.9719848633"/>
			<point x="232.9588623047" y="720.7005004883"/>
			<point x="233.9588623047" y="529.1924438477" type="qcurve" smooth="yes"/>
			<point x="235.9588623047" y="347.0175170898"/>
			<point x="372.6171875" y="132.4222412109"/>
			<point x="557.2224121094" y="132.4222412109" type="qcurve" smooth="yes"/>
			<point x="682.7308959961" y="132.4222412109"/>
			<point x="903.5097045898" y="226.1323242188"/>
			<point x="950.7822265625" y="288.9223022461" type="qcurve"/>
			<point x="998.5005493164" y="192.5936279297" type="line"/>
			<point x="988.5865478516" y="109.2290649414"/>
			<point x="713.1642456055" y="-30.5219726562"/>
			<point x="576.9969482422" y="-30.5219726562" type="qcurve" smooth="yes"/>
			<point x="368.7265625" y="-30.5219726562"/>
			<point x="64.8306884766" y="262.0520019531"/>
		</contour>
	</outline>
	<anchor name="bottom" x="578" y="0"/>
	<anchor name="ogonek" x="744" y="0"/>
	<anchor name="top" x="539" y="1000"/>
</glyph>
<glyph name="g" format="2">
	<unicode hex="0067"/>
	<advance width="1181"/>
	<outline>
		<contour>
			<point x="74.7628173828" y="-249.4819946289" type="qcurve" smooth="yes"/>
			<point x="74.7628173828" y="-171.4074707031"/>
			<point x="229.0279541016" y="-24.2748413086"/>
			<point x="320.803894043" y="25.6094360352" type="qcurve"/>
			<point x="448.869140625" y="-15.4788208008" type="line"/>
			<point x="349.0311889648" y="-64.569519043"/>
			<point x="262.9395751953" y="-176.1866455078"/>
			<point x="262.9395751953" y="-231.5554199219" type="qcurve" smooth="yes"/>
			<point x="262.9395751953" y="-314.3447265625"/>
			<point x="405.8952636719" y="-388.2687988281"/>
			<point x="605.5560913086" y="-388.2687988281" type="qcurve" smooth="yes"/>
			<point x="783.3090209961" y="-388.2687988281"/>
			<point x="974.4147338867" y="-296.719909668"/>
			<point x="974.4147338867" y="-226.038269043" type="qcurve" smooth="yes"/>
			<point x="974.4147338867" y="-164.2722167969"/>
			<point x="828.1201782227" y="-99.5047607422"/>
			<point x="603.4169921875" y="-89.8760375977" type="qcurve" smooth="yes"/>
			<point x="366.5144042969" y="-79.5405273438"/>
			<point x="129.4813232422" y="5.6860961914"/>
			<point x="129.4813232422" y="121.2178955078" type="qcurve" smooth="yes"/>
			<point x="129.4813232422" y="170.8920898438"/>
			<point x="248.3710327148" y="299.7777099609"/>
			<point x="365.2578125" y="337.0252685547" type="qcurve"/>
			<point x="415.7043457031" y="297.1403198242" type="line"/>
			<point x="333.6922607422" y="261.8277587891"/>
			<point x="280.9256591797" y="202.1907348633"/>
			<point x="280.9256591797" y="155.419128418" type="qcurve" smooth="yes"/>
			<point x="280.9256591797" y="115.3386230469"/>
			<point x="386.6076049805" y="61.7678833008"/>
			<point x="635.3966064453" y="55.4057006836" type="qcurve" smooth="yes"/>
			<point x="913.3889160156" y="45.9066162109"/>
			<point x="1146.930847168" y="-55.3367919922"/>
			<point x="1146.1664428711" y="-193.0194091797" type="qcurve" smooth="yes"/>
			<point x="1145.4020385742" y="-336.4555664062"/>
			<point x="839.6055297852" y="-489.5317382812"/>
			<point x="575.7891235352" y="-489.5317382812" type="qcurve" smooth="yes"/>
			<point x="312.8682250977" y="-489.5317382812"/>
			<point x="74.7628173828" y="-367.5640258789"/>
		</contour>
		<contour>
			<point x="147.0020751953" y="616.4419555664" type="qcurve" smooth="yes"/>
			<point x="147.0020751953" y="813.9492797852"/>
			<point x="385.1993408203" y="1014.6799316406"/>
			<point x="576.7272338867" y="1014.6799316406" type="qcurve" smooth="yes"/>
			<point x="784.9294433594" y="1014.6799316406"/>
			<point x="1025.8818969727" y="822.9492797852"/>
			<point x="1026.8818969727" y="621.4419555664" type="qcurve" smooth="yes"/>
			<point x="1027.8818969727" y="429.3303833008"/>
			<point x="776.4123535156" y="204.5736083984"/>
			<point x="585.8027954102" y="204.5736083984" type="qcurve" smooth="yes"/>
			<point x="383.946472168" y="204.5736083984"/>
			<point x="147.0020751953" y="414.9346313477"/>
		</contour>
		<contour>
			<point x="317.2147216797" y="614.0504150391" type="qcurve" smooth="yes"/>
			<point x="317.2147216797" y="475.3266601562"/>
			<point x="458.1836547852" y="307.7044067383"/>
			<point x="589.7891235352" y="307.7044067383" type="qcurve" smooth="yes"/>
			<point x="694.3945922852" y="307.7044067383"/>
			<point x="861.1404418945" y="480.5754394531"/>
			<point x="861.1404418945" y="618.2991943359" type="qcurve" smooth="yes"/>
			<point x="861.1404418945" y="741.0229492188"/>
			<point x="709.5588989258" y="910.2084960938"/>
			<point x="590.9534301758" y="910.2084960938" type="qcurve" smooth="yes"/>
			<point x="467.3479614258" y="910.2084960938"/>
			<point x="317.2147216797" y="739.7741699219"/>
		</contour>
		<contour>
			<point x="628.6221923828" y="909.8409423828" type="line"/>
			<point x="634.9879150391" y="992.3969726562" type="line"/>
			<point x="1167.5147705078" y="1000.3969726562" type="line"/>
			<point x="1167.5147705078" y="855.6068115234" type="line"/>
		</contour>
	</outline>
	<anchor name="bottom" x="524" y="-416"/>
	<anchor name="top" x="484" y="1000"/>
</glyph>
<glyph name="l" format="2">
	<unicode hex="006C"/>
	<advance width="567"/>
	<outline>
		<contour>
			<point x="96.0041503906" y="0" type="line"/>
			<point x="96.0041503906" y="80.005859375" type="line"/>
			<point x="228.0041503906" y="115.005859375" type="line"/>
			<point x="230.0041503906" y="527" type="line"/>
			<point x="228.0041503906" y="1377.994140625" type="line"/>
			<point x="82.0041503906" y="1407.994140625" type="line"/>
			<point x="82.0041503906" y="1500" type="line"/>
			<point x="310.0119628906" y="1529.0244140625" type="line"/>
			<point x="342.0119628906" y="1529.0244140625" type="line"/>
			<point x="399.0119628906" y="1482.0244140625" type="line"/>
			<point x="397.0119628906" y="527" type="line"/>
			<point x="399.0119628906" y="115.005859375" type="line"/>
			<point x="526.0119628906" y="80.005859375" type="line"/>
			<point x="526.0119628906" y="0" type="line"/>
		</contour>
	</outline>
	<anchor name="bottom" x="316" y="0"/>
	<anchor name="center" x="316" y="750"/>
	<anchor name="top" x="316" y="1534"/>
	<anchor name="topright" x="367" y="1000"/>
	<anchor name="centerright" x="746" y="680"/>
	<anchor name="yu_dash" x="321" y="500"/>
	<anchor name="liga" x="632" y="0"/>
</glyph>
<glyph name="n" format="2">
	<unicode hex="006E"/>
	<advance width="1230"/>
	<outline>
		<contour>
			<point x="76" y="0" type="line"/>
			<point x="76" y="80" type="line"/>
			<point x="224" y="115" type="line"/>
			<point x="226" y="558" type="line"/>
			<point x="224" y="850" type="line"/>
			<point x="66" y="880" type="line"/>
			<point x="66" y="972" type="line"/>
			<point x="316" y="1007" type="line"/>
			<point x="356" y="980" type="line"/>
			<point x="384" y="798" type="line"/>
			<point x="440" y="881"/>
			<point x="646" y="1015"/>
			<point x="776" y="1015" type="qcurve" smooth="yes"/>
			<point x="923" y="1015"/>
			<point x="1055" y="811"/>
			<point x="1055" y="647" type="qcurve" smooth="yes"/>
			<point x="1055" y="609"/>
			<point x="1056" y="562"/>
			<point x="1056" y="551" type="qcurve" smooth="yes"/>
			<point x="1056" y="114" type="line"/>
			<point x="1216" y="80" type="line"/>
			<point x="1216" y="0" type="line"/>
			<point x="756" y="0" type="line"/>
			<point x="756" y="80" type="line"/>
			<point x="880" y="115" type="line"/>
			<point x="885" y="531" type="line"/>
			<point x="885" y="631" type="line" smooth="yes"/>
			<point x="885" y="756"/>
			<point x="797" y="862"/>
			<point x="684" y="862" type="qcurve" smooth="yes"/>
			<point x="596" y="862"/>
			<point x="420" y="750"/>
			<point x="393" y="704" type="qcurve"/>
			<point x="392" y="538" type="line"/>
			<point x="394" y="115" type="line"/>
			<point x="532" y="80" type="line"/>
			<point x="532" y="0" type="line"/>
		</contour>
	</outline>
	<anchor name="bottom" x="632" y="0"/>
	<anchor name="top" x="632" y="1000"/>
	<anchor name="liga" x="1264" y="0"/>
</glyph>
<glyph name="o" format="2">
	<unicode hex="006F"/>
	<advance width="1151"/>
	<outline>
		<contour>
			<point x="63.8914794922" y="499.6984863281" type="qcurve" smooth="yes"/>
			<point x="63.8914794922" y="730.4391479492"/>
			<point x="353.673828125" y="1022.8939819336"/>
			<point x="569.7259521484" y="1022.8939819336" type="qcurve" smooth="yes"/>
			<point x="789.5158081055" y="1022.8939819336"/>
			<point x="1087.1468505859" y="750.5355224609"/>
			<point x="1087.1468505859" y="505.6984863281" type="qcurve" smooth="yes"/>
			<point x="1087.1468505859" y="274.2163696289"/>
			<point x="797.7514038086" y="-26.4473876953"/>
			<point x="579.7259521484" y="-26.4473876953" type="qcurve" smooth="yes"/>
			<point x="360.3093261719" y="-26.4473876953"/>
			<point x="63.8914794922" y="251.1199951172"/>
		</contour>
		<contour>
			<point x="236.7315673828" y="514.6984863281" type="qcurve" smooth="yes"/>
			<point x="238.9513549805" y="343.7800292969"/>
			<point x="423.7604370117" y="70.3753051758"/>
			<point x="571.5170288086" y="70.3753051758" type="qcurve" smooth="yes"/>
			<point x="733.2736206055" y="70.3753051758"/>
			<point x="909.7203369141" y="316.0933837891"/>
			<point x="909.7203369141" y="500.6984863281" type="qcurve" smooth="yes"/>
			<point x="909.7203369141" y="670.0093994141"/>
			<point x="723.2736206055" y="905.895324707"/>
			<point x="574.5170288086" y="905.895324707" type="qcurve" smooth="yes"/>
			<point x="410.7604370117" y="905.895324707"/>
			<point x="235.5117797852" y="695.9117431641"/>
		</contour>
	</outline>
	<anchor name="bottom" x="584" y="0"/>
	<anchor name="center" x="584" y="500"/>
	<anchor name="ogonek" x="747" y="0"/>
	<anchor name="top" x="584" y="1000"/>
	<anchor name="topright" x="751" y="1000"/>
	<anchor name="GRKtop" x="584" y="1000"/>
	<anchor name="yu_dash" x="150" y="500"/>
</glyph>
<glyph name="p" format="2">
	<unicode hex="0070"/>
	<advance width="1258"/>
	<outline>
		<contour>
			<point x="64.1049804688" y="-480" type="line"/>
			<point x="64.1049804688" y="-404.994140625" type="line"/>
			<point x="207.6049804688" y="-369.994140625" type="line"/>
			<point x="209.6049804688" y="393.8670654297" type="line"/>
			<point x="207.6049804688" y="850.3911132812" type="line"/>
			<point x="58.1049804688" y="880.3911132812" type="line"/>
			<point x="58.1049804688" y="969.3969726562" type="line"/>
			<point x="299.4348144531" y="998.4213867188" type="line"/>
			<point x="334.4348144531" y="971.4213867188" type="line"/>
			<point x="370.4348144531" y="836.3969726562" type="line"/>
			<point x="354.330078125" y="900.4035644531"/>
			<point x="577.5194702148" y="1014.6799316406"/>
			<point x="767.2267456055" y="1014.6799316406" type="qcurve" smooth="yes"/>
			<point x="973.3011474609" y="1014.6799316406"/>
			<point x="1193.9798583984" y="735.2660522461"/>
			<point x="1193.9798583984" y="529.6594238281" type="qcurve" smooth="yes"/>
			<point x="1193.9798583984" y="304.7490234375"/>
			<point x="942.4411010742" y="-21.0244140625"/>
			<point x="701.5357666016" y="-21.0244140625" type="qcurve" smooth="yes"/>
			<point x="532.3997802734" y="-21.0244140625"/>
			<point x="362.6417236328" y="67.1845703125"/>
			<point x="374.4348144531" y="97" type="qcurve"/>
			<point x="376.4348144531" y="-369.994140625" type="line"/>
			<point x="553.9348144531" y="-404.994140625" type="line"/>
			<point x="553.9348144531" y="-480" type="line"/>
		</contour>
		<contour>
			<point x="373.4348144531" y="284.1351928711" type="line"/>
			<point x="386.1793212891" y="211.1349487305"/>
			<point x="575.7252197266" y="93.7011108398"/>
			<point x="694.2648925781" y="93.7011108398" type="qcurve" smooth="yes"/>
			<point x="847.021484375" y="93.7011108398"/>
			<point x="1028.8414306641" y="391.4257202148"/>
			<point x="1028.8414306641" y="490.6594238281" type="qcurve" smooth="yes"/>
			<point x="1028.8414306641" y="599.5260620117"/>
			<point x="858.9322509766" y="899.7447509766"/>
			<point x="700.1756591797" y="899.7447509766" type="qcurve" smooth="yes"/>
			<point x="580.8002929688" y="899.7447509766"/>
			<point x="418.8368530273" y="780.8806762695"/>
			<point x="375.4348144531" y="694.2301635742" type="qcurve"/>
			<point x="370.4348144531" y="415.3329467773" type="line"/>
		</contour>
	</outline>
	<anchor name="bottom" x="599" y="0"/>
	<anchor name="top" x="599" y="1000"/>
</glyph>
<glyph name="t" format="2">
	<unicode hex="0074"/>
	<advance width="709"/>
	<outline>
		<contour>
			<point x="62.6296386719" y="856.2481689453" type="line"/>
			<point x="62.6296386719" y="948.6864013672" type="line"/>
			<point x="216.6296386719" y="978.6864013672"/>
			<point x="315.5234985352" y="1087.5655517578"/>
			<point x="370.5234985352" y="1252.5655517578" type="qcurve"/>
			<point x="343.2073364258" y="1252.5655517578" type="line"/>
			<point x="402.2073364258" y="1189.5655517578" type="line"/>
			<point x="397.2073364258" y="976.5655517578" type="line"/>
			<point x="664.1787109375" y="976.5655517578" type="line"/>
			<point x="664.1787109375" y="854.2481689453" type="line"/>
			<point x="393.2073364258" y="854.2481689453" type="line"/>
			<point x="385.2073364258" y="536.9395751953" type="line"/>
			<point x="390.2073364258" y="255.5371704102" type="line" smooth="yes"/>
			<point x="390.9875488281" y="187.5371704102"/>
			<point x="480.475769043" y="123.5371704102"/>
			<point x="544.2810668945" y="131.5371704102" type="qcurve" smooth="yes"/>
			<point x="678.4313964844" y="141.5371704102" type="line"/>
			<point x="678.4313964844" y="40" type="line"/>
			<point x="376.8693847656" y="-9.7756347656" type="line"/>
			<point x="296.1428833008" y="-9.7756347656"/>
			<point x="209.9639282227" y="115.4599609375"/>
			<point x="211.9639282227" y="212.2243652344" type="qcurve" smooth="yes"/>
			<point x="218.9639282227" y="536.9395751953" type="line"/>
			<point x="218.9639282227" y="838.2481689453" type="line"/>
		</contour>
	</outline>
	<anchor name="bottom" x="322" y="0"/>
	<anchor name="center" x="312" y="622"/>
	<anchor name="top" x="322" y="1179"/>
	<anchor name="topright" x="540" y="1000"/>
</glyph>
<glyph name="v" format="2">
	<unicode hex="0076"/>
	<advance width="1080"/>
	<outline>
		<contour>
			<point x="-23.3068847656" y="903.3911132812" type="line"/>
			<point x="-23.3068847656" y="999.3969726562" type="line"/>
			<point x="437.9707641602" y="999.3969726562" type="line"/>
			<point x="437.9707641602" y="903.3911132812" type="line"/>
			<point x="313.9707641602" y="867.3911132812" type="line"/>
			<point x="465.1603393555" y="445.227355957" type="line"/>
			<point x="486" y="301" type="line"/>
			<point x="523" y="187" type="line"/>
			<point x="533" y="187" type="line"/>
			<point x="570" y="301" type="line"/>
			<point x="635.8400268555" y="508.4376220703" type="line"/>
			<point x="779.0802001953" y="868.3911132812" type="line"/>
			<point x="649.0802001953" y="903.3911132812" type="line"/>
			<point x="649.0802001953" y="999.3969726562" type="line"/>
			<point x="1102.7846069336" y="999.3969726562" type="line"/>
			<point x="1102.7846069336" y="903.3911132812" type="line"/>
			<point x="966.7846069336" y="868.3911132812" type="line"/>
			<point x="767.1731567383" y="427.9122314453" type="line"/>
			<point x="595.6543579102" y="4.9755859375" type="line"/>
			<point x="407.2459716797" y="4.9755859375" type="line"/>
			<point x="308.4533081055" y="373.5631713867" type="line"/>
			<point x="108.6931152344" y="868.3911132812" type="line"/>
		</contour>
	</outline>
	<anchor name="bottom" x="513" y="0"/>
	<anchor name="top" x="513" y="1000"/>
</glyph>
<glyph name="w" format="2">
	<unicode hex="0077"/>
	<advance width="1467"/>
	<outline>
		<contour>
			<point x="360.9692382812" y="4.9755859375" type="line"/>
			<point x="222.2457275391" y="469.0261230469" type="line"/>
			<point x="88.6931152344" y="868.3911132812" type="line"/>
			<point x="-23.3068847656" y="903.3911132812" type="line"/>
			<point x="-23.3068847656" y="999.3969726562" type="line"/>
			<point x="365.3154296875" y="999.3969726562" type="line"/>
			<point x="365.3154296875" y="903.3911132812" type="line"/>
			<point x="258.3154296875" y="868.3911132812" type="line"/>
			<point x="371.2283325195" y="470.1920776367" type="line"/>
			<point x="483" y="294" type="line"/>
			<point x="521" y="180" type="line"/>
			<point x="531" y="180" type="line"/>
			<point x="568" y="294" type="line"/>
			<point x="552.3345336914" y="396.762878418" type="line"/>
			<point x="725" y="747" type="line"/>
			<point x="604.7125244141" y="868.3911132812" type="line"/>
			<point x="502.7125244141" y="903.3911132812" type="line"/>
			<point x="502.7125244141" y="999.3969726562" type="line"/>
			<point x="904.3041381836" y="999.3969726562" type="line"/>
			<point x="904.3041381836" y="903.3911132812" type="line"/>
			<point x="798.3041381836" y="868.3911132812" type="line"/>
			<point x="928.0647583008" y="404.958984375" type="line"/>
			<point x="1045" y="294" type="line"/>
			<point x="1082" y="180" type="line"/>
			<point x="1092" y="180" type="line"/>
			<point x="1128" y="294" type="line"/>
			<point x="1104.3424682617" y="483.9625854492" type="line"/>
			<point x="1224.6924438477" y="868.3911132812" type="line"/>
			<point x="1096.6924438477" y="903.3911132812" type="line"/>
			<point x="1096.6924438477" y="999.3969726562" type="line"/>
			<point x="1496.8864135742" y="999.3969726562" type="line"/>
			<point x="1496.8864135742" y="903.3911132812" type="line"/>
			<point x="1376.8864135742" y="868.3911132812" type="line"/>
			<point x="1308" y="496" type="line"/>
			<point x="1107.9775390625" y="4.9755859375" type="line"/>
			<point x="880.0874023438" y="4.9755859375" type="line"/>
			<point x="830" y="480" type="line"/>
			<point x="790" y="595" type="line"/>
			<point x="780" y="595" type="line"/>
			<point x="741" y="480" type="line"/>
			<point x="568.5356445312" y="4.9755859375" type="line"/>
		</contour>
	</outline>
	<anchor name="bottom" x="787" y="0"/>
	<anchor name="top" x="787" y="1000"/>
</glyph>
<glyph name="x" format="2">
	<unicode hex="0078"/>
	<advance width="983"/>
	<outline>
		<contour>
			<point x="9.3107910156" y="0" type="line"/>
			<point x="9.3107910156" y="80.005859375" type="line"/>
			<point x="163.3107910156" y="116.005859375" type="line"/>
			<point x="444" y="480" type="line"/>
			<point x="141.9219360352" y="868.3911132812" type="line"/>
			<point x="25.9219360352" y="903.3911132812" type="line"/>
			<point x="25.9219360352" y="999.3969726562" type="line"/>
			<point x="445.6119995117" y="999.3969726562" type="line"/>
			<point x="445.6119995117" y="903.3911132812" type="line"/>
			<point x="364.6119995117" y="866.3911132812" type="line"/>
			<point x="454" y="701" type="line"/>
			<point x="527" y="602" type="line"/>
			<point x="537" y="602" type="line"/>
			<point x="603" y="701" type="line"/>
			<point x="660.2875366211" y="873.3911132812" type="line"/>
			<point x="537.2875366211" y="903.3911132812" type="line"/>
			<point x="537.2875366211" y="999.3969726562" type="line"/>
			<point x="950.2183227539" y="999.3969726562" type="line"/>
			<point x="950.2183227539" y="903.3911132812" type="line"/>
			<point x="812.2183227539" y="868.3911132812" type="line"/>
			<point x="594" y="524" type="line"/>
			<point x="866.5251464844" y="116.005859375" type="line"/>
			<point x="1002.5251464844" y="80.005859375" type="line"/>
			<point x="1002.5251464844" y="0" type="line"/>
			<point x="511.8237915039" y="0" type="line"/>
			<point x="511.8237915039" y="80.005859375" type="line"/>
			<point x="604.8237915039" y="114.005859375" type="line"/>
			<point x="584" y="305" type="line"/>
			<point x="511" y="402" type="line"/>
			<point x="501" y="402" type="line"/>
			<point x="439" y="305" type="line"/>
			<point x="339.3525390625" y="115.005859375" type="line"/>
			<point x="453.3525390625" y="80.005859375" type="line"/>
			<point x="453.3525390625" y="0" type="line"/>
		</contour>
	</outline>
	<anchor name="bottom" x="522" y="0"/>
	<anchor name="top" x="522" y="1000"/>
	<anchor name="cy_descender" x="1043" y="80"/>
</glyph>
<glyph name="y" format="2">
	<unicode hex="0079"/>
	<advance width="1044"/>
	<outline>
		<contour>
			<point x="-0.3747558594" y="903.3911132812" type="line"/>
			<point x="-0.3747558594" y="999.3969726562" type="line"/>
			<point x="428.6645507812" y="999.3969726562" type="line"/>
			<point x="428.6645507812" y="903.3911132812" type="line"/>
			<point x="312.6645507812" y="870.3911132812" type="line"/>
			<point x="469.3512573242" y="448.266784668" type="line"/>
			<point x="486" y="301" type="line"/>
			<point x="523" y="187" type="line"/>
			<point x="533" y="187" type="line"/>
			<point x="570" y="301" type="line"/>
			<point x="632.6711425781" y="566.5479125977" type="line"/>
			<point x="722.9915161133" y="868.3911132812" type="line"/>
			<point x="592.9915161133" y="903.3911132812" type="line"/>
			<point x="592.9915161133" y="999.3969726562" type="line"/>
			<point x="1024.8895874023" y="999.3969726562" type="line"/>
			<point x="1024.8895874023" y="903.3911132812" type="line"/>
			<point x="888.8895874023" y="868.3911132812" type="line"/>
			<point x="773.328125" y="556.1674804688" type="line"/>
			<point x="508.0639648438" y="-240.1982421875" type="line" smooth="yes"/>
			<point x="448.6099243164" y="-375.1987915039"/>
			<point x="310.8446044922" y="-495.2683105469"/>
			<point x="206.9607543945" y="-495.2683105469" type="qcurve"/>
			<point x="48.6353149414" y="-439" type="line"/>
			<point x="48.6353149414" y="-336.5883789062" type="line"/>
			<point x="183.0955810547" y="-343.5883789062" type="line" smooth="yes"/>
			<point x="182.3826904297" y="-347.5883789062"/>
			<point x="304.3887329102" y="-332.2231445312"/>
			<point x="340.4270019531" y="-239.2513427734" type="qcurve" smooth="yes"/>
			<point x="176.9984130859" y="-31.3315429688" type="line"/>
			<point x="646.3426513672" y="-31.3315429688" type="line"/>
			<point x="262.3870849609" y="503.4204711914" type="line"/>
			<point x="131.6252441406" y="868.3911132812" type="line"/>
		</contour>
	</outline>
	<anchor name="bottom" x="782" y="0"/>
	<anchor name="top" x="524" y="1000"/>
</glyph>
<glyph name="z" format="2">
	<unicode hex="007A"/>
	<advance width="870"/>
	<outline>
		<contour>
			<point x="47.2737426758" y="0" type="line"/>
			<point x="47.2737426758" y="118.0212402344" type="line"/>
			<point x="600.3602294922" y="870.9806518555" type="line"/>
			<point x="181.1245117188" y="870.9806518555" type="line"/>
			<point x="139.1245117188" y="651.6485595703" type="line"/>
			<point x="35.3467407227" y="651.6485595703" type="line"/>
			<point x="35.3467407227" y="999.3969726562" type="line"/>
			<point x="769.9671630859" y="999.3969726562" type="line"/>
			<point x="769.9671630859" y="882.3757324219" type="line"/>
			<point x="219.3384399414" y="128.4163208008" type="line"/>
			<point x="717.5952758789" y="128.4163208008" type="line"/>
			<point x="759.5952758789" y="344.7484130859" type="line"/>
			<point x="860.1436767578" y="344.7484130859" type="line"/>
			<point x="860.1436767578" y="0" type="line"/>
		</contour>
	</outline>
	<anchor name="bottom" x="443" y="0"/>
	<anchor name="top" x="443" y="1000"/>
	<anchor name="_liga" x="0" y="0"/>
</glyph>
<glyph name="idotless" format="2">
	<unicode hex="0131"/>
	<advance width="570"/>
	<outline>
		<contour>
			<point x="94.6327514648" y="0" type="line"/>
			<point x="94.6327514648" y="80.005859375" type="line"/>
			<point x="222.6327514648" y="115.005859375" type="line"/>
			<point x="224.6327514648" y="548.9879150391" type="line"/>
			<point x="221.7528686523" y="850.3911132812" type="line"/>
			<point x="94.6327514648" y="880.3911132812" type="line"/>
			<point x="94.6327514648" y="969.3969726562" type="line"/>
			<point x="276.6405639648" y="996.4213867188" type="line"/>
			<point x="354.6405639648" y="996.4213867188" type="line"/>
			<point x="397.6405639648" y="947.4213867188" type="line"/>
			<point x="390.6405639648" y="548.9879150391" type="line"/>
			<point x="392.6405639648" y="115.005859375" type="line"/>
			<point x="520.6405639648" y="80.005859375" type="line"/>
			<point x="520.6405639648" y="0" type="line"/>
		</contour>
	</outline>
	<anchor name="bottom" x="320" y="0"/>
	<anchor name="top" x="320" y="1000"/>
	<anchor name="ogonek" x="513" y="0"/>
	<anchor name="liga" x="639" y="0"/>
</glyph>
<glyph name="jdotless" format="2">
	<advance width="678"/>
	<outline>
		<contour>
			<point x="70.6411132812" y="-471" type="qcurve"/>
			<point x="70.6411132812" y="-333.9145507812" type="line"/>
			<point x="180.0491333008" y="-330.9145507812"/>
			<point x="243.1555786133" y="-221.727722168"/>
			<point x="243.3755493164" y="-126.1013793945" type="qcurve" smooth="yes"/>
			<point x="242.3755493164" y="552" type="line"/>
			<point x="239.4956665039" y="850.3911132812" type="line"/>
			<point x="112.3755493164" y="880.3911132812" type="line"/>
			<point x="112.3755493164" y="969.3969726562" type="line"/>
			<point x="295.3833618164" y="996.4213867188" type="line"/>
			<point x="372.3833618164" y="996.4213867188" type="line"/>
			<point x="415.3833618164" y="947.4213867188" type="line"/>
			<point x="409.3833618164" y="552" type="line"/>
			<point x="412.3833618164" y="-95.3657836914" type="line" smooth="yes"/>
			<point x="413.3833618164" y="-274.3657836914"/>
			<point x="292.2392578125" y="-487.7644042969"/>
		</contour>
	</outline>
	<anchor name="bottom" x="278" y="-436"/>
	<anchor name="top" x="278" y="1000"/>
	<anchor name="_liga" x="0" y="0"/>
</glyph>
